<svg width="177" height="161" viewBox="0 0 177 161" fill="none" xmlns="http://www.w3.org/2000/svg">
<path d="M20.532 103.362C15.222 106.582 16.992 112.7 28.32 115.598C40.002 119.14 52.746 120.106 65.136 118.174C65.844 118.174 66.552 117.852 66.906 117.852V106.904L54.87 110.446C50.268 111.734 45.666 112.056 41.064 111.09C37.524 110.124 38.232 108.192 42.48 106.582L66.906 98.854V86.94L32.922 97.566C28.674 98.854 24.426 100.786 20.532 103.362ZM102.66 55.062V86.296C117.174 92.736 128.502 86.296 128.502 69.552C128.502 52.486 121.776 44.758 102.306 38.64C92.04 35.42 81.42 32.522 70.8 30.59V123.648L95.58 130.41V52.164C95.58 48.622 95.58 46.046 98.412 47.012C102.306 47.978 102.66 51.52 102.66 55.062ZM148.68 95.956C138.414 92.736 127.44 91.448 116.82 92.414C111.156 92.736 105.846 94.024 100.89 95.634L99.828 95.956V108.514L122.838 100.786C127.44 99.498 132.042 99.176 136.644 100.142C140.184 101.108 139.476 103.04 135.228 104.65L99.828 116.564V128.8L148.68 112.378C152.22 111.09 155.406 109.48 158.238 106.904C160.716 103.684 159.654 99.176 148.68 95.956Z" fill="white"/>
</svg>
